<?xml version="1.0" encoding="utf-8"?><svg version="1.1" id="Layer_1" xmlns="http://www.w3.org/2000/svg" xmlns:xlink="http://www.w3.org/1999/xlink" x="0px" y="0px"	 viewBox="0 0 1190 842" style="enable-background:new 0 0 1190 842;" xml:space="preserve"><style type="text/css">	.st0{opacity:0.08;fill:#2b343d;enable-background:new    ;}</style><g>	<path class="st0" d="M649.2,579c0-25.3-20.4-45.8-45.8-45.8c-25.3,0-45.8,20.4-45.8,45.8c0,24.9,20,45.1,44.6,45.8V842h2.3V624.7		C629.2,624,649.2,603.8,649.2,579z M560,579c0-23.9,19.5-43.4,43.4-43.4s43.4,19.5,43.4,43.4s-19.5,43.4-43.4,43.4		S560,602.9,560,579z"/>	<path class="st0" d="M485.9,661c0-27.6-22.5-50.4-50.4-50.4s-50.4,22.5-50.4,50.4c0,27.2,21.6,49.2,48.3,50.2v129.6h2.3V711.1		C463.4,711.1,485.9,688.6,485.9,661z M387.7,661c0-26.5,21.6-48.1,48.1-48.1s48.1,21.6,48.1,48.1s-21.6,48.1-48.1,48.1		S387.7,687.5,387.7,661z"/>	<path class="st0" d="M470.1,681.4c0.2-0.5,1.2-1.6,1.4-2.3c0.2-0.7,0-2.6,0-3.3c0-0.5-0.5-0.7-0.7-0.7h-6.5v-31.6		c0-1.9-1.4-3.3-3.3-3.3h-50.9c-1.9,0-3.3,1.4-3.3,3.3v31.6h-6.5c-0.5,0-0.7,0.2-0.7,0.7s-0.2,2.3,0,3.3c0.2,0.7,1.2,1.9,1.4,2.3		c0.2,0.2,0.5,0.2,0.7,0.2h67.8C469.7,681.6,469.9,681.6,470.1,681.4z M408.6,643.5c0-0.9,0.7-1.6,1.6-1.6h50.9		c0.9,0,1.6,0.7,1.6,1.6v31.6h-2.8v-29.7c0-0.5-0.5-0.7-0.7-0.7H412c-0.5,0-0.7,0.5-0.7,0.7v29.7h-2.8L408.6,643.5L408.6,643.5z		 M440.2,675.1c-0.5,0-0.7,0.5-0.7,0.7v0.7h-7.7v-0.7c0-0.5-0.5-0.7-0.7-0.7H413v-28.8h45.5v28.8H440.2z M402.1,680		c-0.5-0.7-0.9-1.2-0.9-1.4s0-1.2,0-1.9h6.5h4.4h18.1v0.7c0,0.5,0.5,0.7,0.7,0.7h9.3c0.5,0,0.7-0.5,0.7-0.7v-0.7H459h4.4h6.5		c0,0.7,0,1.6,0,1.9s-0.5,0.9-0.9,1.4L402.1,680L402.1,680z"/>			<rect x="427.045" y="656.673" transform="matrix(0.7072 -0.7071 0.7071 0.7072 -337.8806 499.1488)" class="st0" width="13.201" height="1.6"/>			<rect x="425.113" y="660.194" transform="matrix(0.7071 -0.7071 0.7071 0.7071 -339.1754 503.1459)" class="st0" width="25.3" height="1.6"/>	<path class="st0" d="M631.1,598.9v-6.5v-33.7c0-0.5-0.2-0.7-0.7-0.7h-54.1c-0.5,0-0.7,0.2-0.7,0.7v33.7v6.5c0,0.5,0.2,0.7,0.7,0.7		h54.1C630.9,599.6,631.1,599.4,631.1,598.9z M577.2,559.7h52.5v32h-52.5V559.7z M577.2,598.3v-4.9h52.5v4.9H577.2z"/>	<rect x="580" y="595" class="st0" width="3.9" height="1.4"/>	<polygon class="st0" points="618.3,594.1 616.7,594.1 616.7,595 589.1,595 589.1,596.4 616.7,596.4 616.7,597.3 618.3,597.3 		618.3,596.4 626.7,596.4 626.7,595 618.3,595 	"/>	<path class="st0" d="M615.8,575l-20.2-11.8c-0.2-0.2-0.5-0.2-0.7,0c-0.2,0.2-0.5,0.5-0.5,0.7v23.5c0,0.2,0.2,0.5,0.5,0.7		c0,0,0.2,0,0.5,0c0.2,0,0.2,0,0.5,0l20.2-11.8c0.2-0.2,0.5-0.5,0.5-0.7C616.2,575.5,616,575.3,615.8,575z M596,586.2v-20.9		l18.1,10.4L596,586.2z"/>	<path class="st0" d="M482.4,761.6c8.1-0.7,14.6-7.4,14.6-15.8c0-8.8-7.2-15.8-15.8-15.8c-8.8,0-15.8,7.2-15.8,15.8		c0,8.4,6.5,15.1,14.6,15.8v22.5h48.1v57.6h2.3v-59.9h-48.1v-20.2L482.4,761.6L482.4,761.6z M467.6,745.8c0-7.4,6-13.5,13.5-13.5		c7.4,0,13.5,6,13.5,13.5s-6,13.5-13.5,13.5C473.8,759.2,467.6,753.2,467.6,745.8z"/>	<path class="st0" d="M791.6,687.9c-7,0-12.8,5.8-12.8,12.8c0,6.7,5.1,12.1,11.6,12.8v64.3h-58.5V628.4c5.3-0.7,9.3-5.1,9.3-10.5		c0-5.8-4.9-10.7-10.7-10.7c-5.8,0-10.7,4.9-10.7,10.7c0,5.6,4.2,10,9.8,10.7V778h-98.3v-49.5h48.8v-55.1c6.5-0.7,11.6-6,11.6-12.8		c0-7-5.8-12.8-12.8-12.8s-12.8,5.8-12.8,12.8c0,6.7,5.1,12.3,11.8,12.8v52.7h-48.8v115h2.3v-60.9h161.7v-66.5		c6.5-0.5,11.8-6,11.8-12.8C804.4,693.7,798.6,687.9,791.6,687.9z M721.9,617.8c0-4.6,3.7-8.4,8.4-8.4c4.6,0,8.4,3.7,8.4,8.4		c0,4.6-3.7,8.4-8.4,8.4C725.9,626.1,721.9,622.4,721.9,617.8z M668,660.5c0-5.8,4.6-10.5,10.5-10.5c5.8,0,10.5,4.6,10.5,10.5		c0,5.8-4.6,10.5-10.5,10.5C672.7,671,668,666.3,668,660.5z M791.6,711.1c-5.8,0-10.5-4.6-10.5-10.5c0-5.8,4.6-10.5,10.5-10.5		c5.8,0,10.5,4.6,10.5,10.5C802.1,706.5,797.4,711.1,791.6,711.1z"/></g></svg>